<svg xmlns="http://www.w3.org/2000/svg" xmlns:xlink="http://www.w3.org/1999/xlink" width="100" zoomAndPan="magnify" viewBox="0 0 75 74.999997" height="100" preserveAspectRatio="xMidYMid meet" version="1.0"><path fill="#ffffff" d="M 37.5 0 C 16.785156 0 0 16.785156 0 37.5 C 0 58.214844 16.785156 75 37.5 75 C 58.214844 75 75 58.214844 75 37.5 C 75 16.785156 58.214844 0 37.5 0 Z M 55.605469 53.730469 L 42.660156 53.730469 L 42.660156 40.078125 C 42.660156 39.316406 42.046875 38.699219 41.28125 38.699219 L 34.289062 38.699219 C 33.523438 38.699219 32.910156 39.316406 32.910156 40.078125 L 32.910156 53.730469 L 19.980469 53.730469 C 19.246094 53.730469 18.644531 53.128906 18.644531 52.394531 L 18.644531 29.761719 C 18.644531 29.339844 18.839844 28.949219 19.171875 28.695312 L 37.003906 15.253906 C 37.484375 14.894531 38.128906 14.894531 38.609375 15.253906 L 56.445312 28.695312 C 56.773438 28.949219 56.96875 29.339844 56.96875 29.761719 L 56.96875 52.351562 C 56.984375 53.113281 56.371094 53.730469 55.605469 53.730469 Z M 55.605469 53.730469 " fill-opacity="1" fill-rule="nonzero"/></svg>