<svg xmlns="http://www.w3.org/2000/svg" xmlns:xlink="http://www.w3.org/1999/xlink" width="240" zoomAndPan="magnify" viewBox="0 0 180 44.999999" height="60" preserveAspectRatio="xMidYMid meet" version="1.0"><defs><g/><clipPath id="d8c4fb805c"><path d="M 4.5 2.007812 L 38.25 2.007812 L 38.25 43.257812 L 4.5 43.257812 Z M 4.5 2.007812 " clip-rule="nonzero"/></clipPath></defs><g clip-path="url(#d8c4fb805c)"><path fill="#ffffff" d="M 32.570312 32.382812 L 21.445312 40.855469 L 10.464844 32.382812 L 6.628906 7.261719 L 21.441406 3.972656 L 36.132812 7.261719 Z M 21.445312 2.019531 L 4.5 5.78125 L 8.71875 33.433594 L 21.4375 43.246094 L 34.324219 33.433594 L 38.246094 5.78125 L 21.445312 2.019531 " fill-opacity="1" fill-rule="nonzero"/></g><path fill="#ffffff" d="M 10.574219 12.585938 L 12.8125 31.613281 L 12.6875 31.394531 L 21.144531 38.34375 L 12.28125 31.929688 L 12.179688 31.855469 L 12.15625 31.710938 L 8.128906 8.535156 L 10.574219 12.585938 " fill-opacity="1" fill-rule="nonzero"/><g fill="#ffffff" fill-opacity="1"><g transform="translate(11.476406, 25.335264)"><g><path d="M 13.777344 -13.121094 L 3.28125 -13.121094 C 1.835938 -13.121094 0.65625 -11.941406 0.65625 -10.496094 L 0.65625 0 L 3.28125 0 L 3.28125 -5.25 L 13.777344 -5.25 L 13.777344 -7.871094 L 3.28125 -7.871094 L 3.28125 -10.496094 L 13.777344 -10.496094 Z M 13.777344 -13.121094 "/></g></g></g><g fill="#ffffff" fill-opacity="1"><g transform="translate(18.551711, 30.952912)"><g><path d="M 14.335938 -10.921875 C 14.335938 -12.40625 13.121094 -13.652344 11.605469 -13.652344 L 0.683594 -13.652344 L 0.683594 0 L 11.605469 0 C 13.121094 0 14.335938 -1.246094 14.335938 -2.730469 L 14.335938 -5.460938 C 14.335938 -6.210938 13.71875 -6.824219 12.96875 -6.824219 C 13.71875 -6.824219 14.335938 -7.441406 14.335938 -8.191406 Z M 11.605469 -10.921875 L 11.605469 -8.191406 L 3.414062 -8.191406 L 3.414062 -10.921875 Z M 3.414062 -2.730469 L 3.414062 -5.460938 L 11.605469 -5.460938 L 11.605469 -2.730469 Z M 3.414062 -2.730469 "/></g></g></g><g fill="#ffffff" fill-opacity="1"><g transform="translate(47.277798, 28.499998)"><g><path d="M 4.4375 0 L 1.671875 0 L 1.671875 -13.25 L 9.265625 -13.25 L 9.265625 -10.953125 L 4.4375 -10.953125 L 4.4375 -7.53125 L 8.921875 -7.53125 L 8.921875 -5.234375 L 4.4375 -5.234375 Z M 4.4375 0 "/></g></g></g><g fill="#ffffff" fill-opacity="1"><g transform="translate(57.461391, 28.499998)"><g><path d="M 9.796875 -4.9375 C 9.796875 -3.332031 9.40625 -2.078125 8.625 -1.171875 C 7.84375 -0.265625 6.769531 0.1875 5.40625 0.1875 C 4.539062 0.1875 3.773438 -0.0195312 3.109375 -0.4375 C 2.453125 -0.851562 1.945312 -1.453125 1.59375 -2.234375 C 1.25 -3.015625 1.078125 -3.914062 1.078125 -4.9375 C 1.078125 -6.539062 1.46875 -7.789062 2.25 -8.6875 C 3.03125 -9.59375 4.097656 -10.046875 5.453125 -10.046875 C 6.804688 -10.046875 7.867188 -9.585938 8.640625 -8.671875 C 9.410156 -7.765625 9.796875 -6.519531 9.796875 -4.9375 Z M 2.015625 -4.9375 C 2.015625 -3.582031 2.3125 -2.523438 2.90625 -1.765625 C 3.507812 -1.015625 4.351562 -0.640625 5.4375 -0.640625 C 6.519531 -0.640625 7.359375 -1.015625 7.953125 -1.765625 C 8.554688 -2.523438 8.859375 -3.582031 8.859375 -4.9375 C 8.859375 -6.300781 8.554688 -7.359375 7.953125 -8.109375 C 7.347656 -8.859375 6.503906 -9.234375 5.421875 -9.234375 C 4.328125 -9.234375 3.484375 -8.859375 2.890625 -8.109375 C 2.304688 -7.359375 2.015625 -6.300781 2.015625 -4.9375 Z M 2.015625 -4.9375 "/></g></g></g><g fill="#ffffff" fill-opacity="1"><g transform="translate(68.337855, 28.499998)"><g><path d="M 5.53125 -10.046875 C 5.945312 -10.046875 6.394531 -10.003906 6.875 -9.921875 L 6.703125 -9.046875 C 6.285156 -9.148438 5.859375 -9.203125 5.421875 -9.203125 C 4.578125 -9.203125 3.882812 -8.84375 3.34375 -8.125 C 2.8125 -7.414062 2.546875 -6.519531 2.546875 -5.4375 L 2.546875 0 L 1.65625 0 L 1.65625 -9.859375 L 2.40625 -9.859375 L 2.5 -8.078125 L 2.5625 -8.078125 C 2.96875 -8.796875 3.398438 -9.300781 3.859375 -9.59375 C 4.316406 -9.894531 4.875 -10.046875 5.53125 -10.046875 Z M 5.53125 -10.046875 "/></g></g></g><g fill="#ffffff" fill-opacity="1"><g transform="translate(75.56164, 28.499998)"><g><path d="M 4.25 -0.609375 C 4.820312 -0.609375 5.316406 -0.660156 5.734375 -0.765625 L 5.734375 -0.03125 C 5.296875 0.113281 4.796875 0.1875 4.234375 0.1875 C 3.359375 0.1875 2.710938 -0.046875 2.296875 -0.515625 C 1.890625 -0.984375 1.6875 -1.710938 1.6875 -2.703125 L 1.6875 -9.078125 L 0.234375 -9.078125 L 0.234375 -9.59375 L 1.6875 -10 L 2.140625 -12.234375 L 2.59375 -12.234375 L 2.59375 -9.859375 L 5.5 -9.859375 L 5.5 -9.078125 L 2.59375 -9.078125 L 2.59375 -2.84375 C 2.59375 -2.082031 2.726562 -1.519531 3 -1.15625 C 3.269531 -0.789062 3.6875 -0.609375 4.25 -0.609375 Z M 4.25 -0.609375 "/></g></g></g><g fill="#ffffff" fill-opacity="1"><g transform="translate(81.779352, 28.499998)"><g><path d="M 5.53125 -10.046875 C 5.945312 -10.046875 6.394531 -10.003906 6.875 -9.921875 L 6.703125 -9.046875 C 6.285156 -9.148438 5.859375 -9.203125 5.421875 -9.203125 C 4.578125 -9.203125 3.882812 -8.84375 3.34375 -8.125 C 2.8125 -7.414062 2.546875 -6.519531 2.546875 -5.4375 L 2.546875 0 L 1.65625 0 L 1.65625 -9.859375 L 2.40625 -9.859375 L 2.5 -8.078125 L 2.5625 -8.078125 C 2.96875 -8.796875 3.398438 -9.300781 3.859375 -9.59375 C 4.316406 -9.894531 4.875 -10.046875 5.53125 -10.046875 Z M 5.53125 -10.046875 "/></g></g></g><g fill="#ffffff" fill-opacity="1"><g transform="translate(89.003137, 28.499998)"><g><path d="M 5.625 0.1875 C 4.195312 0.1875 3.082031 -0.253906 2.28125 -1.140625 C 1.476562 -2.023438 1.078125 -3.257812 1.078125 -4.84375 C 1.078125 -6.414062 1.460938 -7.675781 2.234375 -8.625 C 3.015625 -9.570312 4.054688 -10.046875 5.359375 -10.046875 C 6.523438 -10.046875 7.441406 -9.640625 8.109375 -8.828125 C 8.785156 -8.015625 9.125 -6.914062 9.125 -5.53125 L 9.125 -4.796875 L 2.015625 -4.796875 C 2.035156 -3.453125 2.351562 -2.421875 2.96875 -1.703125 C 3.582031 -0.992188 4.46875 -0.640625 5.625 -0.640625 C 6.1875 -0.640625 6.679688 -0.675781 7.109375 -0.75 C 7.535156 -0.832031 8.078125 -1.003906 8.734375 -1.265625 L 8.734375 -0.4375 C 8.171875 -0.195312 7.65625 -0.0351562 7.1875 0.046875 C 6.71875 0.140625 6.195312 0.1875 5.625 0.1875 Z M 5.359375 -9.25 C 4.410156 -9.25 3.648438 -8.9375 3.078125 -8.3125 C 2.503906 -7.6875 2.171875 -6.78125 2.078125 -5.59375 L 8.171875 -5.59375 C 8.171875 -6.738281 7.921875 -7.632812 7.421875 -8.28125 C 6.929688 -8.925781 6.242188 -9.25 5.359375 -9.25 Z M 5.359375 -9.25 "/></g></g></g><g fill="#ffffff" fill-opacity="1"><g transform="translate(99.190759, 28.499998)"><g><path d="M 7.765625 -2.5625 C 7.765625 -1.675781 7.425781 -0.992188 6.75 -0.515625 C 6.082031 -0.046875 5.128906 0.1875 3.890625 0.1875 C 2.578125 0.1875 1.535156 -0.015625 0.765625 -0.421875 L 0.765625 -1.390625 C 1.753906 -0.898438 2.796875 -0.65625 3.890625 -0.65625 C 4.867188 -0.65625 5.609375 -0.816406 6.109375 -1.140625 C 6.617188 -1.460938 6.875 -1.890625 6.875 -2.421875 C 6.875 -2.921875 6.671875 -3.335938 6.265625 -3.671875 C 5.867188 -4.015625 5.207031 -4.347656 4.28125 -4.671875 C 3.300781 -5.035156 2.609375 -5.34375 2.203125 -5.59375 C 1.804688 -5.851562 1.503906 -6.144531 1.296875 -6.46875 C 1.097656 -6.789062 1 -7.1875 1 -7.65625 C 1 -8.382812 1.304688 -8.960938 1.921875 -9.390625 C 2.546875 -9.828125 3.414062 -10.046875 4.53125 -10.046875 C 5.59375 -10.046875 6.601562 -9.84375 7.5625 -9.4375 L 7.21875 -8.625 C 6.257812 -9.03125 5.363281 -9.234375 4.53125 -9.234375 C 3.726562 -9.234375 3.085938 -9.097656 2.609375 -8.828125 C 2.140625 -8.554688 1.90625 -8.1875 1.90625 -7.71875 C 1.90625 -7.207031 2.085938 -6.796875 2.453125 -6.484375 C 2.828125 -6.179688 3.546875 -5.835938 4.609375 -5.453125 C 5.492188 -5.128906 6.140625 -4.835938 6.546875 -4.578125 C 6.953125 -4.328125 7.253906 -4.039062 7.453125 -3.71875 C 7.660156 -3.394531 7.765625 -3.007812 7.765625 -2.5625 Z M 7.765625 -2.5625 "/></g></g></g><g fill="#ffffff" fill-opacity="1"><g transform="translate(107.837548, 28.499998)"><g><path d="M 7.765625 -2.5625 C 7.765625 -1.675781 7.425781 -0.992188 6.75 -0.515625 C 6.082031 -0.046875 5.128906 0.1875 3.890625 0.1875 C 2.578125 0.1875 1.535156 -0.015625 0.765625 -0.421875 L 0.765625 -1.390625 C 1.753906 -0.898438 2.796875 -0.65625 3.890625 -0.65625 C 4.867188 -0.65625 5.609375 -0.816406 6.109375 -1.140625 C 6.617188 -1.460938 6.875 -1.890625 6.875 -2.421875 C 6.875 -2.921875 6.671875 -3.335938 6.265625 -3.671875 C 5.867188 -4.015625 5.207031 -4.347656 4.28125 -4.671875 C 3.300781 -5.035156 2.609375 -5.34375 2.203125 -5.59375 C 1.804688 -5.851562 1.503906 -6.144531 1.296875 -6.46875 C 1.097656 -6.789062 1 -7.1875 1 -7.65625 C 1 -8.382812 1.304688 -8.960938 1.921875 -9.390625 C 2.546875 -9.828125 3.414062 -10.046875 4.53125 -10.046875 C 5.59375 -10.046875 6.601562 -9.84375 7.5625 -9.4375 L 7.21875 -8.625 C 6.257812 -9.03125 5.363281 -9.234375 4.53125 -9.234375 C 3.726562 -9.234375 3.085938 -9.097656 2.609375 -8.828125 C 2.140625 -8.554688 1.90625 -8.1875 1.90625 -7.71875 C 1.90625 -7.207031 2.085938 -6.796875 2.453125 -6.484375 C 2.828125 -6.179688 3.546875 -5.835938 4.609375 -5.453125 C 5.492188 -5.128906 6.140625 -4.835938 6.546875 -4.578125 C 6.953125 -4.328125 7.253906 -4.039062 7.453125 -3.71875 C 7.660156 -3.394531 7.765625 -3.007812 7.765625 -2.5625 Z M 7.765625 -2.5625 "/></g></g></g><g fill="#ffffff" fill-opacity="1"><g transform="translate(116.477012, 28.499998)"><g><path d="M 1.671875 -13.25 L 5.796875 -13.25 C 7.671875 -13.25 9.03125 -12.976562 9.875 -12.4375 C 10.726562 -11.90625 11.15625 -11.054688 11.15625 -9.890625 C 11.15625 -9.097656 10.96875 -8.445312 10.59375 -7.9375 C 10.226562 -7.4375 9.738281 -7.132812 9.125 -7.03125 L 9.125 -6.9375 C 9.957031 -6.75 10.5625 -6.398438 10.9375 -5.890625 C 11.3125 -5.378906 11.5 -4.695312 11.5 -3.84375 C 11.5 -2.632812 11.0625 -1.691406 10.1875 -1.015625 C 9.3125 -0.335938 8.125 0 6.625 0 L 1.671875 0 Z M 4.484375 -8 L 6.109375 -8 C 6.867188 -8 7.421875 -8.113281 7.765625 -8.34375 C 8.109375 -8.582031 8.28125 -8.976562 8.28125 -9.53125 C 8.28125 -10.03125 8.09375 -10.390625 7.71875 -10.609375 C 7.34375 -10.835938 6.753906 -10.953125 5.953125 -10.953125 L 4.484375 -10.953125 Z M 4.484375 -5.78125 L 4.484375 -2.328125 L 6.3125 -2.328125 C 7.082031 -2.328125 7.648438 -2.472656 8.015625 -2.765625 C 8.390625 -3.054688 8.578125 -3.507812 8.578125 -4.125 C 8.578125 -5.226562 7.789062 -5.78125 6.21875 -5.78125 Z M 4.484375 -5.78125 "/></g></g></g><g fill="#ffffff" fill-opacity="1"><g transform="translate(128.945762, 28.499998)"><g><path d="M 9.796875 -4.9375 C 9.796875 -3.332031 9.40625 -2.078125 8.625 -1.171875 C 7.84375 -0.265625 6.769531 0.1875 5.40625 0.1875 C 4.539062 0.1875 3.773438 -0.0195312 3.109375 -0.4375 C 2.453125 -0.851562 1.945312 -1.453125 1.59375 -2.234375 C 1.25 -3.015625 1.078125 -3.914062 1.078125 -4.9375 C 1.078125 -6.539062 1.46875 -7.789062 2.25 -8.6875 C 3.03125 -9.59375 4.097656 -10.046875 5.453125 -10.046875 C 6.804688 -10.046875 7.867188 -9.585938 8.640625 -8.671875 C 9.410156 -7.765625 9.796875 -6.519531 9.796875 -4.9375 Z M 2.015625 -4.9375 C 2.015625 -3.582031 2.3125 -2.523438 2.90625 -1.765625 C 3.507812 -1.015625 4.351562 -0.640625 5.4375 -0.640625 C 6.519531 -0.640625 7.359375 -1.015625 7.953125 -1.765625 C 8.554688 -2.523438 8.859375 -3.582031 8.859375 -4.9375 C 8.859375 -6.300781 8.554688 -7.359375 7.953125 -8.109375 C 7.347656 -8.859375 6.503906 -9.234375 5.421875 -9.234375 C 4.328125 -9.234375 3.484375 -8.859375 2.890625 -8.109375 C 2.304688 -7.359375 2.015625 -6.300781 2.015625 -4.9375 Z M 2.015625 -4.9375 "/></g></g></g><g fill="#ffffff" fill-opacity="1"><g transform="translate(139.822226, 28.499998)"><g><path d="M 4.0625 -5.0625 L 0.640625 -9.859375 L 1.671875 -9.859375 L 4.609375 -5.703125 L 7.515625 -9.859375 L 8.5 -9.859375 L 5.125 -5.0625 L 8.75 0 L 7.703125 0 L 4.609375 -4.390625 L 1.484375 0 L 0.5 0 Z M 4.0625 -5.0625 "/></g></g></g><g fill="#ffffff" fill-opacity="1"><g transform="translate(149.06722, 28.499998)"><g><path d="M 5.625 0.1875 C 4.195312 0.1875 3.082031 -0.253906 2.28125 -1.140625 C 1.476562 -2.023438 1.078125 -3.257812 1.078125 -4.84375 C 1.078125 -6.414062 1.460938 -7.675781 2.234375 -8.625 C 3.015625 -9.570312 4.054688 -10.046875 5.359375 -10.046875 C 6.523438 -10.046875 7.441406 -9.640625 8.109375 -8.828125 C 8.785156 -8.015625 9.125 -6.914062 9.125 -5.53125 L 9.125 -4.796875 L 2.015625 -4.796875 C 2.035156 -3.453125 2.351562 -2.421875 2.96875 -1.703125 C 3.582031 -0.992188 4.46875 -0.640625 5.625 -0.640625 C 6.1875 -0.640625 6.679688 -0.675781 7.109375 -0.75 C 7.535156 -0.832031 8.078125 -1.003906 8.734375 -1.265625 L 8.734375 -0.4375 C 8.171875 -0.195312 7.65625 -0.0351562 7.1875 0.046875 C 6.71875 0.140625 6.195312 0.1875 5.625 0.1875 Z M 5.359375 -9.25 C 4.410156 -9.25 3.648438 -8.9375 3.078125 -8.3125 C 2.503906 -7.6875 2.171875 -6.78125 2.078125 -5.59375 L 8.171875 -5.59375 C 8.171875 -6.738281 7.921875 -7.632812 7.421875 -8.28125 C 6.929688 -8.925781 6.242188 -9.25 5.359375 -9.25 Z M 5.359375 -9.25 "/></g></g></g><g fill="#ffffff" fill-opacity="1"><g transform="translate(159.254842, 28.499998)"><g><path d="M 7.765625 -2.5625 C 7.765625 -1.675781 7.425781 -0.992188 6.75 -0.515625 C 6.082031 -0.046875 5.128906 0.1875 3.890625 0.1875 C 2.578125 0.1875 1.535156 -0.015625 0.765625 -0.421875 L 0.765625 -1.390625 C 1.753906 -0.898438 2.796875 -0.65625 3.890625 -0.65625 C 4.867188 -0.65625 5.609375 -0.816406 6.109375 -1.140625 C 6.617188 -1.460938 6.875 -1.890625 6.875 -2.421875 C 6.875 -2.921875 6.671875 -3.335938 6.265625 -3.671875 C 5.867188 -4.015625 5.207031 -4.347656 4.28125 -4.671875 C 3.300781 -5.035156 2.609375 -5.34375 2.203125 -5.59375 C 1.804688 -5.851562 1.503906 -6.144531 1.296875 -6.46875 C 1.097656 -6.789062 1 -7.1875 1 -7.65625 C 1 -8.382812 1.304688 -8.960938 1.921875 -9.390625 C 2.546875 -9.828125 3.414062 -10.046875 4.53125 -10.046875 C 5.59375 -10.046875 6.601562 -9.84375 7.5625 -9.4375 L 7.21875 -8.625 C 6.257812 -9.03125 5.363281 -9.234375 4.53125 -9.234375 C 3.726562 -9.234375 3.085938 -9.097656 2.609375 -8.828125 C 2.140625 -8.554688 1.90625 -8.1875 1.90625 -7.71875 C 1.90625 -7.207031 2.085938 -6.796875 2.453125 -6.484375 C 2.828125 -6.179688 3.546875 -5.835938 4.609375 -5.453125 C 5.492188 -5.128906 6.140625 -4.835938 6.546875 -4.578125 C 6.953125 -4.328125 7.253906 -4.039062 7.453125 -3.71875 C 7.660156 -3.394531 7.765625 -3.007812 7.765625 -2.5625 Z M 7.765625 -2.5625 "/></g></g></g></svg>