<svg xmlns="http://www.w3.org/2000/svg" xmlns:xlink="http://www.w3.org/1999/xlink" width="51" zoomAndPan="magnify" viewBox="0 0 38.25 46.5" height="62" preserveAspectRatio="xMidYMid meet" version="1.0"><defs><g/><clipPath id="19bbed0acf"><path d="M 0.5625 1.394531 L 36.605469 1.394531 L 36.605469 44.792969 L 0.5625 44.792969 Z M 0.5625 1.394531 " clip-rule="nonzero"/></clipPath></defs><g clip-path="url(#19bbed0acf)"><path fill="#fdfce9" d="M 30.542969 33.355469 L 18.660156 42.273438 L 6.9375 33.355469 L 2.839844 6.910156 L 18.65625 3.449219 L 34.347656 6.910156 Z M 18.660156 1.394531 L 0.5625 5.355469 L 5.070312 34.460938 L 18.652344 44.789062 L 32.414062 34.460938 L 36.605469 5.355469 L 18.660156 1.394531 " fill-opacity="1" fill-rule="nonzero"/></g><path fill="#fdfce9" d="M 7.050781 12.515625 L 9.441406 32.542969 L 9.304688 32.3125 L 18.339844 39.628906 L 8.875 32.878906 L 8.765625 32.800781 L 8.738281 32.648438 L 4.441406 8.253906 L 7.050781 12.515625 " fill-opacity="1" fill-rule="nonzero"/><g fill="#fdfce9" fill-opacity="1"><g transform="translate(7.978212, 26.051402)"><g><path d="M 14.53125 -13.839844 L 3.460938 -13.839844 C 1.9375 -13.839844 0.691406 -12.59375 0.691406 -11.070312 L 0.691406 0 L 3.460938 0 L 3.460938 -5.535156 L 14.53125 -5.535156 L 14.53125 -8.304688 L 3.460938 -8.304688 L 3.460938 -11.070312 L 14.53125 -11.070312 Z M 14.53125 -13.839844 "/></g></g></g><g fill="#fdfce9" fill-opacity="1"><g transform="translate(15.44061, 31.976395)"><g><path d="M 15.117188 -11.519531 C 15.117188 -13.085938 13.839844 -14.398438 12.238281 -14.398438 L 0.71875 -14.398438 L 0.71875 0 L 12.238281 0 C 13.839844 0 15.117188 -1.3125 15.117188 -2.878906 L 15.117188 -5.757812 C 15.117188 -6.550781 14.46875 -7.199219 13.679688 -7.199219 C 14.46875 -7.199219 15.117188 -7.847656 15.117188 -8.640625 Z M 12.238281 -11.519531 L 12.238281 -8.640625 L 3.597656 -8.640625 L 3.597656 -11.519531 Z M 3.597656 -2.878906 L 3.597656 -5.757812 L 12.238281 -5.757812 L 12.238281 -2.878906 Z M 3.597656 -2.878906 "/></g></g></g></svg>