<svg xmlns="http://www.w3.org/2000/svg" xmlns:xlink="http://www.w3.org/1999/xlink" width="100" zoomAndPan="magnify" viewBox="0 0 75 74.999997" height="100" preserveAspectRatio="xMidYMid meet" version="1.0"><path fill="#ffffff" d="M 37.5 75 C 58.210938 75 75 58.210938 75 37.5 C 75 16.789062 58.210938 0 37.5 0 C 16.789062 0 0 16.789062 0 37.5 C 0 58.210938 16.789062 75 37.5 75 Z M 20.46875 21.546875 L 37.5 35.171875 L 54.53125 21.546875 L 55.023438 21.136719 L 19.976562 21.136719 Z M 56.847656 24.351562 L 57.5 23.804688 L 57.5 52.046875 C 57.5 53.050781 56.6875 53.863281 55.683594 53.863281 L 19.316406 53.863281 C 18.3125 53.863281 17.5 53.050781 17.5 52.046875 L 17.5 23.804688 L 18.152344 24.351562 L 18.183594 24.375 L 36.363281 38.917969 C 37.027344 39.449219 37.972656 39.449219 38.636719 38.917969 L 56.816406 24.375 Z M 56.847656 24.351562 " fill-opacity="1" fill-rule="evenodd"/></svg>