<svg xmlns="http://www.w3.org/2000/svg" xmlns:xlink="http://www.w3.org/1999/xlink" width="100" zoomAndPan="magnify" viewBox="0 0 75 74.999997" height="100" preserveAspectRatio="xMidYMid meet" version="1.0"><path fill="#ffffff" d="M 31.113281 28.945312 C 24.105469 32.992188 34.796875 53.03125 42.464844 48.605469 L 49.574219 60.917969 C 46.339844 62.785156 43.601562 63.964844 39.851562 61.820312 C 29.4375 55.867188 17.972656 36.023438 18.300781 24.183594 C 18.414062 20.070312 20.835938 18.460938 24.003906 16.632812 Z M 31.113281 28.945312 " fill-opacity="1" fill-rule="evenodd"/><path fill="#ffffff" d="M 34.054688 28.609375 C 33.296875 29.046875 32.320312 28.785156 31.882812 28.03125 L 25.183594 16.421875 C 24.746094 15.664062 25.007812 14.691406 25.761719 14.253906 L 29.285156 12.21875 C 30.042969 11.78125 31.015625 12.042969 31.453125 12.800781 L 38.15625 24.410156 C 38.59375 25.164062 38.332031 26.140625 37.574219 26.578125 Z M 34.054688 28.609375 " fill-opacity="1" fill-rule="evenodd"/><path fill="#ffffff" d="M 52.363281 60.320312 C 51.605469 60.757812 50.628906 60.5 50.191406 59.742188 L 43.492188 48.132812 C 43.054688 47.375 43.316406 46.402344 44.070312 45.964844 L 47.59375 43.929688 C 48.351562 43.492188 49.324219 43.753906 49.761719 44.511719 L 56.464844 56.121094 C 56.902344 56.878906 56.640625 57.851562 55.882812 58.289062 Z M 52.363281 60.320312 " fill-opacity="1" fill-rule="evenodd"/><path fill="#ffffff" d="M 37.488281 0 L 37.488281 0.0078125 C 47.84375 0.0078125 57.214844 4.203125 63.996094 10.980469 C 70.773438 17.761719 74.96875 27.132812 74.96875 37.488281 L 74.976562 37.488281 L 74.96875 37.488281 C 74.96875 47.84375 70.773438 57.21875 63.996094 63.996094 C 57.214844 70.773438 47.84375 74.96875 37.488281 74.96875 L 37.488281 74.976562 L 37.488281 74.96875 C 27.132812 74.96875 17.757812 70.773438 10.980469 63.996094 C 4.203125 57.214844 0.0078125 47.84375 0.0078125 37.488281 L 0 37.488281 L 0.0078125 37.488281 C 0.0078125 27.132812 4.203125 17.757812 10.980469 10.980469 C 17.761719 4.203125 27.132812 0.0078125 37.488281 0.0078125 Z M 37.488281 4.472656 L 37.488281 4.480469 L 37.488281 4.472656 C 28.378906 4.472656 20.128906 8.171875 14.148438 14.148438 C 8.171875 20.128906 4.472656 28.382812 4.472656 37.488281 L 4.480469 37.488281 L 4.472656 37.488281 C 4.472656 46.597656 8.171875 54.847656 14.148438 60.828125 C 20.128906 66.804688 28.382812 70.503906 37.488281 70.503906 L 37.488281 70.496094 L 37.488281 70.503906 C 46.597656 70.503906 54.847656 66.804688 60.828125 60.828125 C 66.804688 54.847656 70.503906 46.59375 70.503906 37.488281 L 70.496094 37.488281 L 70.503906 37.488281 C 70.503906 28.378906 66.804688 20.128906 60.828125 14.148438 C 54.847656 8.171875 46.597656 4.472656 37.488281 4.472656 Z M 37.488281 4.472656 " fill-opacity="1" fill-rule="nonzero"/></svg>